<?xml version="1.0" encoding="UTF-8"?>
<svg xmlns="http://www.w3.org/2000/svg" xmlns:xlink="http://www.w3.org/1999/xlink" width="240.5pt" height="142.6pt" viewBox="0 0 240.5 142.6" version="1.1">
<defs>
<clipPath id="clip1">
  <path d="M 203 82 L 240.5 82 L 240.5 140 L 203 140 Z M 203 82 "/>
</clipPath>
</defs>
<g id="surface1">
<path style=" stroke:none;fill-rule:evenodd;fill:rgb(6.272888%,16.479492%,51.367188%);fill-opacity:1;" d="M 206.269531 21.277344 C 182.359375 12.566406 158.386719 9.765625 134.476563 14.605469 L 150.996094 -0.0078125 C 168.945313 2.789063 187.476563 10.855469 206.269531 21.277344 Z M 206.269531 21.277344 "/>
<path style=" stroke:none;fill-rule:evenodd;fill:rgb(94.139099%,48.631287%,0%);fill-opacity:1;" d="M 222.015625 31.660156 C 192.035156 31.421875 161.851563 37.996094 130.414063 60.691406 L 113.925781 46.808594 C 117.164063 39.0625 121.230469 31.578125 126.644531 24.5625 C 163.714844 15.558594 194.410156 20.285156 222.015625 31.660156 Z M 222.015625 31.660156 "/>
<path style=" stroke:none;fill-rule:evenodd;fill:rgb(98.4375%,74.021912%,36.083984%);fill-opacity:1;" d="M 126.644531 24.5625 C 121.476563 31.148438 117.59375 38.945313 113.878906 46.617188 L 102.039063 33.816406 C 109.5625 29.585938 117.671875 26.609375 126.644531 24.5625 Z M 126.644531 24.5625 "/>
<path style=" stroke:none;fill-rule:evenodd;fill:rgb(98.4375%,74.021912%,36.083984%);fill-opacity:1;" d="M 106.453125 81.9375 C 107.234375 70.796875 109.484375 58.558594 113.90625 46.691406 L 130.527344 60.59375 C 120.914063 66.503906 113.390625 74.542969 106.453125 81.9375 Z M 106.453125 81.9375 "/>
<path style=" stroke:none;fill-rule:evenodd;fill:rgb(6.272888%,16.479492%,51.367188%);fill-opacity:1;" d="M 38.285156 93.648438 L 38.160156 80.773438 C 31.683594 80.035156 26.054688 80.304688 21.039063 80.972656 C 5.417969 83.054688 0.015625 99.777344 9.125 108.3125 C 15.136719 113.941406 27.460938 114.742188 34.789063 117.339844 C 37.921875 118.453125 40.273438 120.136719 40.324219 123.179688 C 40.378906 126.21875 37.460938 128.980469 30.046875 128.699219 C 22.890625 128.691406 16.574219 125.957031 10.746094 121.605469 L 1.542969 130.515625 C 11.40625 138.5625 28.96875 142.53125 45.140625 137.417969 C 53.148438 133.769531 55.746094 127.140625 55.289063 121.191406 C 54.433594 109.933594 45.738281 107.722656 36.527344 105.289063 C 32.855469 104.324219 23.785156 102.460938 21.246094 100.1875 C 20.160156 99.214844 19.789063 98.15625 19.78125 97.117188 C 19.738281 91.929688 29.449219 89.390625 38.285156 93.648438 Z M 38.285156 93.648438 "/>
<path style=" stroke:none;fill-rule:evenodd;fill:rgb(6.272888%,16.479492%,51.367188%);fill-opacity:1;" d="M 80.058594 88.648438 C 94.523438 88.648438 106.246094 99.703125 106.246094 113.34375 C 106.246094 114.96875 106.078125 116.558594 105.761719 118.09375 L 68.660156 118.09375 C 70.667969 124.980469 76.640625 127.449219 84.808594 127.460938 L 84.808594 137.636719 C 83.265625 137.902344 81.679688 138.042969 80.058594 138.042969 C 65.59375 138.042969 53.867188 126.984375 53.867188 113.34375 C 53.867188 99.703125 65.59375 88.648438 80.058594 88.648438 Z M 68.386719 109.816406 L 91.863281 109.816406 C 91.589844 106.988281 90.785156 104.632813 89.339844 102.828125 C 84.78125 97.132813 75.671875 97.765625 71.222656 103.429688 C 69.816406 105.210938 68.929688 107.386719 68.386719 109.816406 Z M 68.386719 109.816406 "/>
<path style=" stroke:none;fill-rule:evenodd;fill:rgb(6.272888%,16.479492%,51.367188%);fill-opacity:1;" d="M 127.496094 89.285156 L 132.921875 89.285156 C 145.046875 89.285156 154.96875 99.203125 154.96875 111.328125 L 154.96875 114.269531 L 154.914063 137.210938 L 139.59375 137.285156 L 139.59375 109.207031 C 139.59375 104.527344 135.765625 100.703125 131.089844 100.703125 L 129.554688 100.703125 C 124.878906 100.703125 121.050781 104.527344 121.050781 109.207031 L 121.050781 137.371094 L 105.453125 137.441406 L 105.453125 111.328125 C 105.453125 99.203125 115.371094 89.285156 127.496094 89.285156 Z M 127.496094 89.285156 "/>
<path style=" stroke:none;fill-rule:evenodd;fill:rgb(6.272888%,16.479492%,51.367188%);fill-opacity:1;" d="M 176.464844 100.207031 L 176.335938 88.445313 C 194.863281 87.921875 203.90625 95.046875 204.015625 107.179688 L 204.289063 136.886719 L 188.984375 137.390625 L 188.984375 132.207031 C 182.914063 137.816406 172.496094 138.34375 166.789063 136.890625 C 160.914063 135.394531 153.90625 130.097656 154.453125 122.972656 C 154.8125 109.816406 168.011719 106.238281 189.617188 108.933594 C 189.261719 103.167969 184.914063 100.234375 176.464844 100.207031 Z M 189.367188 117.027344 C 185.070313 116.8125 179.464844 116.0625 175.269531 116.867188 C 166.972656 118.460938 165.941406 127.4375 176.570313 128.382813 C 179.6875 128.660156 183.203125 128.03125 186.035156 125.910156 C 188.3125 124.195313 189.808594 121.007813 189.367188 117.027344 Z M 189.367188 117.027344 "/>
<g clip-path="url(#clip1)" clip-rule="nonzero">
<path style=" stroke:none;fill-rule:evenodd;fill:rgb(6.272888%,16.479492%,51.367188%);fill-opacity:1;" d="M 237.996094 82.621094 C 238.871094 82.621094 239.734375 82.652344 240.589844 82.707031 L 240.589844 93.628906 C 229.128906 93.660156 219.847656 101.519531 219.847656 111.210938 C 219.847656 120.902344 229.128906 128.761719 240.589844 128.789063 L 240.589844 139.710938 C 239.734375 139.769531 238.871094 139.792969 237.996094 139.792969 C 218.824219 139.792969 203.277344 126.996094 203.277344 111.210938 C 203.277344 95.421875 218.824219 82.621094 237.996094 82.621094 Z M 237.996094 82.621094 "/>
</g>
</g>
</svg>
